<svg width="171" height="171" viewBox="0 0 171 171" fill="none" xmlns="http://www.w3.org/2000/svg">
<g id="behance_logo_icon_189229 1">
<path id="Vector" d="M135.747 16.5698H35.6576C25.4901 16.5698 17.2478 24.8122 17.2478 34.9796V135.069C17.2478 145.237 25.4901 153.479 35.6576 153.479H135.747C145.915 153.479 154.157 145.237 154.157 135.069V34.9796C154.157 24.8122 145.915 16.5698 135.747 16.5698Z" fill="black"/>
<path id="Vector_2" d="M119.353 60.9385H98.7915V66.7739H119.353V60.9385Z" fill="#FEFEFE"/>
<path id="Vector_3" d="M79.9366 81.3709C87.3431 80.0258 86.5792 71.4071 86.5792 71.4071C85.9614 59.6797 74.6824 59.5137 74.6824 59.5137H47.076V108.668H73.9185C88.6052 108.197 88.4657 94.7523 88.4657 94.7523C89.0236 82.54 79.9366 81.3709 79.9366 81.3709ZM58.6573 68.0593H70.8065C72.1035 68.0458 73.3716 68.4421 74.43 69.1918C76.6519 70.8226 76.4228 73.7054 76.4228 73.7054C76.4228 73.7553 76.4228 73.8051 76.4228 73.8582C76.4228 76.9403 73.696 79.3516 70.4245 79.3516H58.6573V68.0593ZM77.8542 93.4205C77.8517 94.2652 77.6814 95.1011 77.3531 95.8794C77.0248 96.6578 76.5452 97.3632 75.942 97.9546C75.3388 98.5461 74.6241 99.0118 73.8394 99.3247C73.0548 99.6376 72.2158 99.7915 71.3711 99.7774H58.6573V86.7115H71.7796C73.1912 86.7115 74.6392 87.0868 75.6921 88.0234C78.0834 90.149 77.8476 93.2444 77.8476 93.2444C77.8509 93.3042 77.8542 93.3607 77.8542 93.4205Z" fill="#FEFEFE"/>
<path id="Vector_4" d="M117.51 95.4832C117.51 95.4832 117.062 101.073 109.071 100.601C109.071 100.601 101.014 100.465 100.877 91.9128H126.601C126.601 91.9128 127.597 83.1613 124.511 78.5148C124.511 78.5148 121.28 70.5438 109.566 70.298C109.566 70.298 95.4703 69.3316 91.3187 83.8322C91.3187 83.8322 89.771 91.1722 91.3187 96.6955C91.3187 96.6955 94.9721 108.748 109.074 108.612C109.074 108.612 126.245 110.23 126.76 95.4832H117.51ZM108.692 77.5915C108.692 77.5915 116.251 76.6516 117.284 85.3135H101.123C101.123 85.3135 100.954 78.94 108.692 77.5915Z" fill="#FEFEFE"/>
</g>
</svg>
